:SAMPLES-PER-SECOND 30
:FULLY-SPECIFIED
:DEGREES
47
root  79.3472 40.2316 -6.86919 -129.609 -88.4652 130.715
RightUpLeg  -2.74834 -8.94826 -6.08261
RightLeg  8.6803 -0.683966 1.89727
RightFoot  -6.5762 -0.0734779 0.687888
RightToes  -5.8209e-011 0 -3.6325e-017
Spine  3.3616 -0.833058 1.55581
Spine1  7.7731 -1.34961 1.65151
HEad  -11.4235 5.47546 -6.50869
LeftShoulder1  7.81478 -11.0009 -47.0008
LeftArm  -0.548702 10.853 -31.1694
LeftForeArm  25.487 -17.8962 -4.75357
LeftHand  -0.244104 0.0205437 5.32207
RightShoulder  5.33612 8.35762 38.9039
RightArm  -6.10257 -12.678 34.7181
RightForeArm  1.70523 12.9028 6.7917
RightHand  -0.446841 -0.990627 -11.7283
LeftUpLeg  -0.693017 6.43427 5.27703
LeftLeg  3.63657 8.51778 -3.81724
LeftFoot  -3.79079 0.262498 -3.629
LeftToes  -6.09394e-011 -3.18376e-011 -2.71738e-012
48
root  79.1414 40.2236 -7.03426 -120.2 -88.6769 121.364
RightUpLeg  -2.35154 -8.90599 -5.88755
RightLeg  8.61167 -1.07388 1.94893
RightFoot  -7.0044 -0.0738586 0.691591
RightToes  -5.8209e-011 0 -3.6325e-017
Spine  3.65861 -1.00095 1.77595
Spine1  7.33758 -1.53973 1.76522
HEad  -11.2601 5.70104 -6.45322
LeftShoulder1  7.92943 -11.2087 -47.0188
LeftArm  0.851961 9.86106 -28.6218
LeftForeArm  25.4356 -17.7783 -4.89753
LeftHand  -0.244104 0.0205437 5.32207
RightShoulder  5.32161 8.40943 38.6
RightArm  0.503221 -12.0763 32.2889
RightForeArm  4.15403 13.9116 7.08161
RightHand  -0.415472 -1.04409 -11.0439
LeftUpLeg  -0.384519 6.5453 5.60057
LeftLeg  3.50308 8.1076 -3.80084
LeftFoot  -3.92192 0.275614 -3.88659
LeftToes  -6.09394e-011 -3.18376e-011 -2.71738e-012
49
root  78.8955 40.2154 -7.22762 -118.144 -88.7921 119.361
RightUpLeg  -2.02805 -8.70772 -5.50389
RightLeg  8.71853 -1.50148 1.89949
RightFoot  -7.44985 -0.0523326 0.0472191
RightToes  -5.8209e-011 0 -3.6325e-017
Spine  3.40384 -1.11436 2.14794
Spine1  7.65933 -1.65133 1.72849
HEad  -11.2937 5.91226 -6.25342
LeftShoulder1  7.97399 -11.3495 -46.8317
LeftArm  0.124047 8.58129 -26.6615
LeftForeArm  28.2835 -16.9139 -5.0746
LeftHand  -0.244104 0.0205437 5.32207
RightShoulder  5.3499 8.52935 38.3989
RightArm  4.9469 -11.546 30.3594
RightForeArm  3.8622 14.7993 7.17391
RightHand  -0.468759 -0.473712 -11.0735
LeftUpLeg  0.0212187 6.64673 5.99186
LeftLeg  3.36361 7.89826 -3.71116
LeftFoot  -4.12713 0.287278 -4.16429
LeftToes  -6.09394e-011 -3.18376e-011 -2.71738e-012
50
root  78.6032 40.1936 -7.44201 -127.624 -88.6933 128.856
RightUpLeg  -1.83277 -8.52216 -5.07982
RightLeg  9.18319 -1.55119 1.77423
RightFoot  -7.96765 -0.0289421 -0.850698
RightToes  -5.8209e-011 0 -3.6325e-017
Spine  2.87552 -1.12 2.48605
Spine1  8.31942 -1.66047 1.69835
HEad  -11.6187 6.12346 -6.08627
LeftShoulder1  7.84946 -11.2991 -46.242
LeftArm  -1.83783 7.50142 -25.6454
LeftForeArm  30.3733 -15.5732 -5.34046
LeftHand  -0.244104 0.0205437 5.32207
RightShoulder  5.32179 8.58633 37.9739
RightArm  6.13589 -11.0667 29.2506
RightForeArm  2.67747 15.0865 7.22489
RightHand  -0.457938 -0.497254 -10.8467
LeftUpLeg  0.418631 6.74693 6.3866
LeftLeg  3.5868 7.86731 -3.56427
LeftFoot  -4.53303 0.314909 -4.83979
LeftToes  -6.09394e-011 -3.18376e-011 -2.71738e-012
51
root  78.2985 40.1422 -7.6805 -132.883 -88.6541 134.163
RightUpLeg  -1.72198 -8.46059 -4.65167
RightLeg  9.85008 -1.47212 1.71179
RightFoot  -8.63894 -0.0271869 -1.31692
RightToes  -5.8209e-011 0 -3.6325e-017
Spine  2.62533 -1.168 2.70149
Spine1  8.52188 -1.75281 1.91314
HEad  -11.7823 6.2881 -6.05984
LeftShoulder1  7.70732 -11.1983 -45.6997
LeftArm  -4.42217 7.08828 -25.1625
LeftForeArm  30.3906 -14.5964 -5.35587
LeftHand  -0.244104 0.0205437 5.32207
RightShoulder  5.24796 8.55747 37.4854
RightArm  4.92961 -10.6785 29.0449
RightForeArm  1.47206 14.9892 7.23513
RightHand  -0.346153 -1.55104 -10.3667
LeftUpLeg  0.29618 6.95616 6.76039
LeftLeg  4.79709 7.68415 -3.10947
LeftFoot  -5.27416 0.325753 -5.54368
LeftToes  -6.09394e-011 -3.18376e-011 -2.71738e-012
52
root  78.0091 40.0379 -7.93584 -138.428 -88.9952 139.794
RightUpLeg  -1.71549 -8.58214 -4.08033
RightLeg  10.7731 -1.54213 1.81586
RightFoot  -9.6113 -0.044791 -1.33157
RightToes  -5.8209e-011 0 -3.6325e-017
Spine  2.7661 -1.30393 3.25105
Spine1  8.2509 -1.88461 2.12594
HEad  -11.7365 6.23867 -6.11697
LeftShoulder1  7.68319 -11.2432 -45.4082
LeftArm  -6.80477 7.19129 -24.6785
LeftForeArm  28.8178 -14.6925 -4.99021
LeftHand  -0.244104 0.0205437 5.32207
RightShoulder  5.20368 8.49148 37.3602
RightArm  2.45377 -10.5729 29.4256
RightForeArm  -1.01717 15.3221 7.00779
RightHand  -0.298296 -2.37512 -11.1482
LeftUpLeg  -0.710673 8.18122 7.14607
LeftLeg  7.48081 6.36074 -1.96157
LeftFoot  -6.50082 0.286848 -5.85954
LeftToes  -6.09394e-011 -3.18376e-011 -2.71738e-012
53
root  77.7237 39.876 -8.19178 -132.335 -89.6909 133.624
RightUpLeg  -1.6836 -8.81996 -3.26402
RightLeg  12.0897 -1.67693 2.0342
RightFoot  -10.8788 -0.0682149 -1.40944
RightToes  -5.8209e-011 0 -3.6325e-017
Spine  3.26845 -1.39969 4.42602
Spine1  7.92149 -1.87108 2.19296
HEad  -11.8051 5.99026 -6.20891
LeftShoulder1  7.73998 -11.3735 -45.3413
LeftArm  -7.94912 7.37644 -24.1565
LeftForeArm  26.178 -15.9593 -4.53666
LeftHand  -0.244104 0.0205437 5.32207
RightShoulder  5.21708 8.44753 37.6223
RightArm  0.124556 -10.8855 30.1054
RightForeArm  -5.54346 17.0982 6.38889
RightHand  -0.40382 -1.85258 -13.0551
LeftUpLeg  -2.43113 10.5004 7.59891
LeftLeg  11.6661 3.87448 -0.193068
LeftFoot  -7.95982 0.240354 -6.57374
LeftToes  -6.09394e-011 -3.18376e-011 -2.71738e-012
54
root  77.4243 39.7084 -8.45412 107.804 -89.4489 -106.818
RightUpLeg  -1.3809 -9.05159 -2.41574
RightLeg  13.4191 -1.89649 2.18282
RightFoot  -12.18 -0.0952845 -1.74306
RightToes  -5.8209e-011 0 -3.6325e-017
Spine  4.02136 -1.41113 5.58929
Spine1  7.7294 -1.75027 2.29643
HEad  -12.1262 5.61988 -6.3112
LeftShoulder1  7.82303 -11.4691 -45.5432
LeftArm  -7.45003 7.4513 -23.8123
LeftForeArm  23.3046 -18.0884 -4.1748
LeftHand  -0.244104 0.0205437 5.32207
RightShoulder  5.27578 8.45268 38.077
RightArm  -1.4761 -11.4185 31.0304
RightForeArm  -10.3356 20.6648 5.69579
RightHand  -0.545516 -0.932028 -14.1831
LeftUpLeg  -4.60545 11.0977 8.12018
LeftLeg  16.961 3.39539 1.54128
LeftFoot  -8.52474 0.259405 -8.36892
LeftToes  -6.09394e-011 -3.18376e-011 -2.71738e-012
55
root  77.1119 39.5673 -8.72548 47.9128 -88.9286 -47.1799
RightUpLeg  -0.968689 -9.30844 -1.83002
RightLeg  14.5138 -2.41097 2.14581
RightFoot  -13.4661 -0.12726 -1.96614
RightToes  -5.8209e-011 0 -3.6325e-017
Spine  4.47329 -1.51344 6.16267
Spine1  7.97387 -1.80108 2.51374
HEad  -12.9505 5.06231 -6.5665
LeftShoulder1  7.90989 -11.5035 -45.957
LeftArm  -6.2115 7.47818 -23.7661
LeftForeArm  21.7842 -20.9089 -3.87354
LeftHand  -0.244104 0.0205437 5.32207
RightShoulder  5.39073 8.57065 38.5768
RightArm  -4.12582 -11.7181 32.3273
RightForeArm  -12.7196 25.4532 6.00751
RightHand  -0.569771 -0.892997 -14.6775
LeftUpLeg  -7.58374 8.91858 8.52622
LeftLeg  23.4626 6.55573 3.46938
LeftFoot  -7.31136 0.392616 -9.89509
LeftToes  -6.09394e-011 -3.18376e-011 -2.71738e-012
56
root  76.7708 39.457 -8.98626 20.2444 -88.0925 -19.5894
RightUpLeg  -0.488804 -9.65361 -1.6679
RightLeg  15.2301 -3.01491 2.06369
RightFoot  -14.6773 -0.152436 -1.83247
RightToes  -5.8209e-011 0 -3.6325e-017
Spine  4.09062 -1.72199 6.47086
Spine1  9.15091 -1.94946 2.31166
HEad  -13.6851 4.42108 -6.78344
LeftShoulder1  7.96486 -11.5255 -46.2167
LeftArm  -5.87478 7.64964 -24.0976
LeftForeArm  22.8263 -24.5363 -4.00496
LeftHand  -0.244104 0.0205437 5.32207
RightShoulder  5.58534 8.83724 39.1623
RightArm  -7.7228 -11.6528 34.0933
RightForeArm  -13.5576 31.3273 7.58674
RightHand  -0.624197 -0.916374 -16.088
LeftUpLeg  -11.1878 7.26403 8.2145
LeftLeg  30.3344 9.64075 6.38186
LeftFoot  -4.76757 0.556548 -9.26987
LeftToes  -6.09394e-011 -3.18376e-011 -2.71738e-012
57
root  76.357 39.3704 -9.21261 7.94235 -87.4702 -7.42455
RightUpLeg  0.337716 -9.92709 -1.85806
RightLeg  15.5673 -3.18776 2.12012
RightFoot  -15.7281 -0.164567 -1.51732
RightToes  -5.8209e-011 0 -3.6325e-017
Spine  3.38276 -1.74915 7.08454
Spine1  10.798 -1.71923 1.33259
HEad  -14.5131 3.58034 -7.05014
LeftShoulder1  7.94676 -11.5036 -46.1774
LeftArm  -6.58545 8.47448 -24.8385
LeftForeArm  25.3304 -29.3995 -4.98873
LeftHand  -0.244104 0.0205437 5.32207
RightShoulder  5.81731 9.14785 39.8506
RightArm  -10.1836 -11.6553 36.0793
RightForeArm  -14.1324 38.8697 9.85459
RightHand  -0.792566 -0.161657 -17.6195
LeftUpLeg  -14.3244 6.29497 7.30293
LeftLeg  36.1418 10.8014 8.68325
LeftFoot  -2.95628 0.544947 -7.14495
LeftToes  -6.09394e-011 -3.18376e-011 -2.71738e-012
